<?xml version="1.0" encoding="UTF-8" standalone="no"?>
<!DOCTYPE svg PUBLIC "-//W3C//DTD SVG 1.1//EN"
 "http://www.w3.org/Graphics/SVG/1.1/DTD/svg11.dtd">
<!-- Generated by graphviz version 5.0.0 (0)
 -->
<!-- Pages: 1 -->
<svg width="179pt" height="221pt"
 viewBox="0.00 0.00 179.00 221.00" xmlns="http://www.w3.org/2000/svg" xmlns:xlink="http://www.w3.org/1999/xlink">
<g id="graph0" class="graph" transform="scale(1 1) rotate(0) translate(4 217)">
<polygon fill="white" stroke="transparent" points="-4,4 -4,-217 175,-217 175,4 -4,4"/>
<!-- 140167553898944 -->
<g id="node1" class="node">
<title>140167553898944</title>
<polygon fill="none" stroke="black" points="71.5,-0.5 71.5,-46.5 136.5,-46.5 136.5,-0.5 71.5,-0.5"/>
<text text-anchor="middle" x="104" y="-31.3" font-family="Times,serif" font-size="14.00">__mul__</text>
<polyline fill="none" stroke="black" points="71.5,-23.5 136.5,-23.5 "/>
<text text-anchor="middle" x="104" y="-8.3" font-family="Times,serif" font-size="14.00">v=20.00</text>
</g>
<!-- 140167553893568 -->
<g id="node2" class="node">
<title>140167553893568</title>
<polygon fill="none" stroke="black" points="33.5,-83.5 33.5,-129.5 96.5,-129.5 96.5,-83.5 33.5,-83.5"/>
<text text-anchor="middle" x="65" y="-114.3" font-family="Times,serif" font-size="14.00">__add__</text>
<polyline fill="none" stroke="black" points="33.5,-106.5 96.5,-106.5 "/>
<text text-anchor="middle" x="65" y="-91.3" font-family="Times,serif" font-size="14.00">v=5.00</text>
</g>
<!-- 140167553893568&#45;&gt;140167553898944 -->
<g id="edge3" class="edge">
<title>140167553893568&#45;&gt;140167553898944</title>
<path fill="none" stroke="black" d="M75.66,-83.37C79.74,-74.88 84.48,-65.04 88.9,-55.85"/>
<polygon fill="black" stroke="black" points="92.17,-57.14 93.36,-46.61 85.86,-54.1 92.17,-57.14"/>
</g>
<!-- 140167553894336 -->
<g id="node3" class="node">
<title>140167553894336</title>
<polygon fill="none" stroke="black" points="0,-166.5 0,-212.5 56,-212.5 56,-166.5 0,-166.5"/>
<text text-anchor="middle" x="28" y="-197.3" font-family="Times,serif" font-size="14.00">x</text>
<polyline fill="none" stroke="black" points="0,-189.5 56,-189.5 "/>
<text text-anchor="middle" x="28" y="-174.3" font-family="Times,serif" font-size="14.00">v=2.00</text>
</g>
<!-- 140167553894336&#45;&gt;140167553893568 -->
<g id="edge1" class="edge">
<title>140167553894336&#45;&gt;140167553893568</title>
<path fill="none" stroke="black" d="M38.11,-166.37C41.99,-157.88 46.48,-148.04 50.68,-138.85"/>
<polygon fill="black" stroke="black" points="53.93,-140.16 54.9,-129.61 47.56,-137.25 53.93,-140.16"/>
</g>
<!-- 140167553896496 -->
<g id="node4" class="node">
<title>140167553896496</title>
<polygon fill="none" stroke="black" points="74,-166.5 74,-212.5 130,-212.5 130,-166.5 74,-166.5"/>
<text text-anchor="middle" x="102" y="-197.3" font-family="Times,serif" font-size="14.00">y</text>
<polyline fill="none" stroke="black" points="74,-189.5 130,-189.5 "/>
<text text-anchor="middle" x="102" y="-174.3" font-family="Times,serif" font-size="14.00">v=3.00</text>
</g>
<!-- 140167553896496&#45;&gt;140167553893568 -->
<g id="edge2" class="edge">
<title>140167553896496&#45;&gt;140167553893568</title>
<path fill="none" stroke="black" d="M91.89,-166.37C88.01,-157.88 83.52,-148.04 79.32,-138.85"/>
<polygon fill="black" stroke="black" points="82.44,-137.25 75.1,-129.61 76.07,-140.16 82.44,-137.25"/>
</g>
<!-- 140167553896688 -->
<g id="node5" class="node">
<title>140167553896688</title>
<polygon fill="none" stroke="black" points="115,-83.5 115,-129.5 171,-129.5 171,-83.5 115,-83.5"/>
<text text-anchor="middle" x="143" y="-114.3" font-family="Times,serif" font-size="14.00">z</text>
<polyline fill="none" stroke="black" points="115,-106.5 171,-106.5 "/>
<text text-anchor="middle" x="143" y="-91.3" font-family="Times,serif" font-size="14.00">v=4.00</text>
</g>
<!-- 140167553896688&#45;&gt;140167553898944 -->
<g id="edge4" class="edge">
<title>140167553896688&#45;&gt;140167553898944</title>
<path fill="none" stroke="black" d="M132.34,-83.37C128.26,-74.88 123.52,-65.04 119.1,-55.85"/>
<polygon fill="black" stroke="black" points="122.14,-54.1 114.64,-46.61 115.83,-57.14 122.14,-54.1"/>
</g>
</g>
</svg>
